<?xml version="1.0" encoding="utf-8"?>
<!-- Svg Vector Icons : http://www.onlinewebfonts.com/icon -->
<!DOCTYPE svg PUBLIC "-//W3C//DTD SVG 1.1//EN" "http://www.w3.org/Graphics/SVG/1.1/DTD/svg11.dtd">
<svg version="1.1" xmlns="http://www.w3.org/2000/svg" xmlns:xlink="http://www.w3.org/1999/xlink" x="0px" y="0px" viewBox="0 0 256 256" enable-background="new 0 0 256 256" xml:space="preserve">
<metadata> Svg Vector Icons : http://www.onlinewebfonts.com/icon </metadata>
<g><g><path fill="#000000" d="M226.3,55.4l2.8,1.9c-14.4,8.9-22.6,22.1-24.5,39.6c27.6,8.2,41.3,24.6,41.3,49.4c0,15.3-5.1,28.2-15.2,38.6c-10.1,10.5-22.5,15.7-37.2,15.7c-14.9,0-27.1-5.3-36.7-15.8c-9.6-10.5-14.4-24-14.4-40.4c0-20.7,8-39.6,23.9-57C182.4,70.1,202.4,59.4,226.3,55.4z M93.8,55.4l2.8,1.9C82.1,66.1,74,79.3,72.1,96.9c27.5,8.2,41.3,24.6,41.3,49.4c0,15.3-5.1,28.2-15.2,38.6c-10.1,10.5-22.5,15.7-37.2,15.7c-14.9,0-27.1-5.3-36.7-15.8c-9.6-10.5-14.4-24-14.4-40.4c0-20.7,8-39.6,23.9-57C49.9,70.1,69.8,59.4,93.8,55.4z"/></g></g>
</svg>